<?xml version="1.0" encoding="UTF-8" standalone="no"?>
<!-- Created with Inkscape (http://www.inkscape.org/) -->

<svg
   width="155.5999mm"
   height="95.600212mm"
   viewBox="0 0 155.5999 95.600212"
   version="1.1"
   id="svg5"
   sodipodi:docname="pbg-logo-path.svg"
   inkscape:version="1.4 (e7c3feb1, 2024-10-09)"
   xmlns:inkscape="http://www.inkscape.org/namespaces/inkscape"
   xmlns:sodipodi="http://sodipodi.sourceforge.net/DTD/sodipodi-0.dtd"
   xmlns="http://www.w3.org/2000/svg"
   xmlns:svg="http://www.w3.org/2000/svg">
  <style
     id="style1">
    @font-face {
      font-family: 'Permanent Marker';
      src: url(&quot;/fonts/PermanentMarker-Regular.ttf&quot;) format('truetype');
      font-weight: normal;
      font-style: normal;
      font-display: swap;
    }
  </style>
  <sodipodi:namedview
     id="namedview7"
     pagecolor="#ffffff"
     bordercolor="#000000"
     borderopacity="0.25"
     inkscape:showpageshadow="2"
     inkscape:pageopacity="0.0"
     inkscape:pagecheckerboard="0"
     inkscape:deskcolor="#d1d1d1"
     inkscape:document-units="mm"
     showgrid="false"
     inkscape:zoom="1.795631"
     inkscape:cx="293.7686"
     inkscape:cy="180.71642"
     inkscape:window-width="1656"
     inkscape:window-height="1190"
     inkscape:window-x="0"
     inkscape:window-y="1041"
     inkscape:window-maximized="0"
     inkscape:current-layer="layer1" />
  <defs
     id="defs2" />
  <g
     inkscape:label="Layer 1"
     inkscape:groupmode="layer"
     id="layer1"
     transform="translate(-41.929193,-55.357287)">
    <g
       id="text236"
       style="font-weight:300;font-size:38.1px;font-family:'Helvetica Neue';-inkscape-font-specification:'Helvetica Neue Light';word-spacing:0px;stroke:#000000;stroke-width:1.6;stroke-linecap:round;stroke-linejoin:round;stroke-dashoffset:3;stroke-opacity:0.973881"
       aria-label="Polska&#10;Bez&#10;Glutenu">
      <path
         style="font-weight:normal;font-family:'Permanent Marker';-inkscape-font-specification:'Permanent Marker';text-align:center;text-anchor:middle;fill:#333333;stroke-opacity:0"
         d="m 55.33098,73.570179 q 0.03721,-0.148828 0.148828,-0.111621 0.148828,0 0.260449,-0.03721 -0.297656,-0.297657 -0.37207,-0.781348 -0.07441,-0.520899 -0.372071,-0.855762 0.07442,-0.186035 0.111622,-0.37207 0.07441,-0.186035 0.334863,-0.148828 -0.111621,-0.818555 0.03721,-1.525488 0.148828,-0.706934 0.446484,-1.339453 0.334863,-0.63252 0.744141,-1.227832 0.446484,-0.63252 0.855761,-1.265039 0.334864,-0.07442 0.409278,0.07441 0.07441,0.111621 0.260449,-0.07441 0.595313,-0.409278 0.818555,-0.892969 0.223242,-0.520899 0.223242,-1.116211 0.334863,-0.967383 0.74414,-1.897559 0.446485,-0.967382 1.00459,-1.785937 0.558106,-0.818555 1.190625,-1.413867 0.63252,-0.63252 1.37666,-0.967383 0.520899,-0.446484 1.302246,-0.818555 0.818555,-0.37207 1.711524,-0.558105 0.930175,-0.223242 1.897558,-0.223242 0.967383,-0.03721 1.785938,0.186035 0.186035,0.07441 0.223242,-0.07441 0.03721,-0.186035 0.186035,-0.186035 1.860351,0.223242 3.311426,0.74414 1.488281,0.520899 2.530078,1.451074 0.706933,1.116211 1.339453,2.418457 0.632519,1.265039 0.967383,2.678907 0.37207,1.37666 0.334863,2.864941 -0.03721,1.488281 -0.63252,2.976562 -1.302246,1.63711 -3.162597,2.641699 -1.860352,0.967383 -4.018359,1.63711 -2.120801,0.632519 -4.427637,1.041796 -2.269629,0.409278 -4.427637,0.892969 0.03721,1.00459 0,2.158008 -0.03721,1.116211 -0.260449,2.269629 -0.186035,1.116211 -0.595312,2.195214 -0.372071,1.079004 -1.041797,2.00918 -0.744141,-0.03721 -1.562695,0.148828 -0.781348,0.186035 -1.413867,0.372071 -0.297657,-0.186036 -0.595313,-0.372071 -0.260449,-0.148828 -0.669726,-0.186035 0.111621,-0.446484 -0.223243,-0.930176 -0.297656,-0.483691 -0.632519,-0.930175 -0.297656,-0.483692 -0.409277,-0.930176 -0.07442,-0.483692 0.446484,-0.855762 -0.297656,-0.260449 -0.297656,-0.818555 0.148828,0.148829 0.37207,0.148829 -0.07441,-0.669727 0.148828,-1.599903 0.260449,-0.930175 0.409277,-1.823144 0.186036,-0.930176 0.07441,-1.674316 -0.111621,-0.781348 -0.892968,-1.116211 z m 9.673827,-8.706445 q -0.148828,0.409277 -0.260449,0.74414 -0.07441,0.297657 -0.186035,0.558106 -0.111621,0.260449 -0.260449,0.520898 -0.111621,0.260449 -0.260449,0.595313 0.07441,0.223242 0.297656,0.334863 0.223242,0.111621 0.297656,0.334863 0.520899,-0.260449 1.041797,-0.37207 0.520898,-0.148828 1.041797,-0.223242 0.520898,-0.07441 1.041797,-0.186035 0.520898,-0.111622 1.079004,-0.372071 0.558105,-0.260449 1.153417,-0.409277 0.63252,-0.186035 1.227832,-0.37207 0.595313,-0.186036 1.153418,-0.409278 0.558106,-0.260449 0.967383,-0.669726 -0.520898,-0.483692 -1.562695,-0.855762 -1.041797,-0.37207 -2.269629,-0.446484 -1.190625,-0.111621 -2.418457,0.148828 -1.190625,0.260449 -2.083594,1.079004 z m 33.970018,8.036718 q -0.03721,0.446484 0.07441,0.855762 0.111621,0.409277 0.260449,0.818554 0.186036,0.372071 0.334864,0.781348 0.148828,0.409277 0.223242,0.818555 0.07441,0.520898 0,1.153418 -0.07441,0.595312 -0.260449,1.190625 -0.186035,0.558105 -0.483692,1.041796 -0.297656,0.446485 -0.706933,0.669727 -0.520899,0.669727 -1.265039,1.041797 -0.744141,0.37207 -1.37666,0.892969 -0.409278,0.260449 -0.930176,0.37207 -0.483691,0.111621 -1.00459,0.223242 -0.409277,0.223242 -0.967383,0.483691 -0.558105,0.223243 -1.153418,0.446485 -0.595312,0.186035 -1.190625,0.297656 -0.595312,0.07441 -1.041796,0.03721 -1.116211,0.409277 -2.195215,0.520898 -1.041797,0.148829 -2.455664,-0.148828 -1.339453,0.186035 -2.492871,-0.111621 -1.116211,-0.297656 -2.00918,-0.930176 -0.855761,-0.669726 -1.525488,-1.562695 -0.632519,-0.930176 -1.041797,-1.934765 -0.297656,-2.120801 0.148828,-3.832324 0.446485,-1.748731 1.265039,-3.199805 0.855762,-1.488281 1.934766,-2.716113 1.079004,-1.265039 2.083594,-2.455664 0.223242,0.07441 0.334863,0 0.148828,-0.111621 0.260449,-0.260449 0.111621,-0.186035 0.223242,-0.334864 0.148828,-0.148828 0.334864,-0.186035 0.260449,-0.558105 0.74414,-0.818554 0.520899,-0.297657 0.818555,-0.818555 0.334863,-0.07441 0.558105,-0.223242 0.223242,-0.148828 0.409278,-0.334863 0.223242,-0.186036 0.446484,-0.334864 0.223242,-0.186035 0.520898,-0.260449 v -0.409277 q 0.669727,-0.297657 0.967383,-0.669727 0.334863,-0.409277 0.781348,-0.967383 0.334863,-0.03721 0.520898,-0.03721 0.223242,0 0.63252,-0.07441 0.297656,-0.520898 0.520898,-0.781347 0.260449,-0.26045 0.744141,-0.558106 0.446484,0.223242 0.967382,0.297656 0.558106,0.07441 0.967383,0.483692 0.03721,0.37207 0.223242,0.595312 0.186036,0.186036 0.409278,0.372071 0.223242,0.148828 0.409277,0.334863 0.223242,0.186035 0.297656,0.520898 0.148828,0.03721 0.186035,-0.03721 0.07441,-0.07441 0.223243,-0.03721 0.111621,0.520899 0.260449,0.706934 0.148828,0.148828 0.297656,0.632519 -0.186035,0.372071 -0.297656,0.781348 -0.07441,0.37207 -0.446485,0.558105 -0.03721,0.26045 0.148829,0.297657 0.186035,0 0.223242,0.186035 0.03721,0.334863 -0.111621,0.483691 0.892968,1.451074 1.599902,3.088184 0.706933,1.599902 1.599902,3.050976 z m -4.650879,3.534668 q 0.148829,-0.409277 0.372071,-0.669727 0.260449,-0.260449 0.297656,-0.781347 -0.186035,-0.297656 -0.223242,-0.446485 -0.03721,-0.186035 -0.03721,-0.558105 -0.818555,-1.153418 -1.413867,-2.455664 -0.595313,-1.339453 -1.339453,-2.492871 -0.07441,0.148828 -0.26045,0.297656 -0.186035,0.148828 -0.409277,-0.07441 -0.07441,0.297656 -0.260449,0.446485 -0.186035,0.111621 -0.409277,0.111621 -0.223243,-0.03721 -0.483692,-0.111621 -0.223242,-0.111622 -0.409277,-0.26045 -1.079004,0.855762 -2.158008,1.674317 -1.079004,0.818554 -1.934765,1.897558 -0.148829,0.07441 -0.186036,0.07441 -0.03721,-0.03721 -0.223242,0.03721 -0.297656,0.706934 -0.74414,1.302246 -0.409278,0.558106 -0.818555,1.153418 -0.409277,0.595313 -0.706934,1.265039 -0.297656,0.669727 -0.334863,1.562696 0.63252,0.520898 1.488281,0.632519 0.855762,0.111621 1.748731,0.03721 0.930175,-0.07441 1.785937,-0.223242 0.892969,-0.186035 1.637109,-0.186035 1.562696,-0.372071 2.678907,-0.967383 1.116211,-0.63252 2.344042,-1.265039 z m 16.743164,7.218164 q -1.0418,0.334863 -2.26963,0.669726 -1.22783,0.334864 -2.45566,0.334864 -1.86035,0 -2.93936,-0.930176 -0.18603,-0.409278 -0.33486,-0.558106 -0.11162,-0.148828 -0.22324,-0.297656 -0.0744,-0.186035 -0.11163,-0.483691 -0.44648,-0.520899 -0.70693,-1.190625 -0.26045,-0.706934 -0.37207,-1.413867 -0.0744,-0.744141 -0.0372,-1.488282 0.0744,-0.74414 0.26045,-1.413867 0.0744,-0.148828 0.0744,-0.297656 0.0372,-0.148828 0.0744,-0.334863 0.14883,-0.595313 0.29766,-1.153418 0.18603,-0.558106 0.48369,-0.967383 -0.14883,-0.334863 0,-0.744141 0.14883,-0.409277 0.33486,-0.74414 0.5209,-1.413867 0.85576,-2.38125 0.37207,-1.00459 0.74414,-1.971973 0.63252,-1.674316 1.19063,-3.311425 0.5581,-1.63711 1.00459,-3.534668 0.29766,-0.186035 0.44648,-0.260449 0.22325,-0.07441 0.37207,-0.111621 0.66973,0.334863 1.5627,0.669726 0.89297,0.297656 1.48828,0.297656 0.29766,0.186036 0.37207,0.297657 0.0744,0.07441 0.14883,0.148828 0.40928,0.483691 0.70693,1.00459 0.29766,0.483691 0.18604,1.302246 -0.22324,0.334863 -0.33487,0.334863 -0.18603,0.74414 -0.40927,1.265039 -0.18604,0.520898 -0.40928,1.041797 -0.26045,0.558105 -0.48369,1.116211 -0.22324,0.558105 -0.37207,1.37666 -0.14883,0.186035 -0.22324,0.334863 -0.0372,0.148828 -0.11163,0.334863 -0.0744,0.186035 -0.18603,0.409278 -0.0744,0.186035 -0.26045,0.334863 -0.11162,0.967383 -0.37207,1.562695 -0.22324,0.595313 -0.48369,1.190625 -0.44649,1.079004 -0.81856,2.158008 -0.33486,1.079004 -0.40927,2.455664 0.18603,-0.07441 0.33486,-0.07441 0.18603,0 0.33486,0 0.33487,0 0.78135,0.111621 1.11621,-0.595313 2.41846,-0.706934 1.33945,-0.111621 2.6417,-0.148828 0.52089,0 1.04179,0 0.5209,0 0.96739,-0.07441 0.33486,0.186035 0.40927,0.223242 0.11162,0 0.29766,0 0.26045,0 0.44648,0.03721 0.44649,0.409278 0.85577,0.595313 0.40927,0.186035 0.85576,0.334863 0.40927,0.148828 0.78135,0.334863 0.40927,0.148828 0.78134,0.446485 l 0.26045,1.599902 q 0.26045,0.334863 0.22324,0.446484 0,0.297656 -0.14882,0.446485 l 0.0744,0.409277 q -0.55811,0.111621 -0.78135,0.260449 -0.18603,0.148828 -0.37207,0.334863 -0.29765,0.03721 -0.44648,0.03721 -0.11162,0 -0.22324,0 -0.5209,0 -1.26504,0.186036 -1.00459,-0.334864 -2.0836,-0.334864 -0.40927,0 -0.85576,0.03721 -0.44648,0.03721 -0.89297,0.07441 -0.44648,0.07441 -0.93017,0.111621 -0.44649,0.03721 -0.93018,0.03721 z m 9.93428,-16.333886 q 0.26045,-0.781348 0.81856,-1.339453 0.59531,-0.558106 1.26503,-0.930176 0.70694,-0.409277 1.45108,-0.669727 0.74414,-0.260449 1.41387,-0.446484 1.48828,-0.63252 3.16259,-1.190625 1.71153,-0.595312 3.46026,-1.041797 1.78593,-0.446484 3.64629,-0.558105 1.86035,-0.148828 3.90673,0.446484 0.11163,0.37207 0.33487,0.706934 0.22324,0.334863 0.44648,0.669726 0.26045,0.334863 0.44649,0.669727 0.18603,0.297656 0.22324,0.632519 0.37207,0.334863 0.59531,0.744141 0.22324,0.37207 0.0744,1.00459 -0.37207,0.297656 -0.74414,0.558105 -0.33486,0.223242 -0.74414,0.409277 -1.37666,-0.334863 -2.79052,-0.223242 -1.41387,0.111621 -2.53008,0.186035 -0.33486,-0.334863 -0.81856,-0.334863 -0.44648,0 -0.96738,0.148828 -0.48369,0.148828 -1.00459,0.297656 -0.48369,0.148829 -0.93017,0.07441 -0.37207,0.297657 -0.93018,0.409278 -0.5209,0.07441 -1.15342,0.148828 -0.0372,0.186035 0.0744,0.260449 0.11162,0.03721 0.0372,0.223242 0.22325,0.26045 0.55811,0.372071 0.37207,0.111621 0.74414,0.223242 0.40928,0.111621 0.70693,0.297656 0.29766,0.148828 0.40928,0.520898 0.55811,0 0.96738,0.26045 0.40928,0.260449 0.66973,0.632519 0.26045,0.37207 0.37207,0.818555 0.14883,0.409277 0.14883,0.74414 0.11162,0.297657 0.26045,0.26045 0.14882,-0.03721 0.33486,0.148828 0.11162,0.483691 0.55811,1.00459 0.44648,0.483691 0.70693,1.079003 0.0744,0.930176 0.11162,1.674317 0.0372,0.706933 -0.26045,1.451074 -0.5581,1.37666 -1.56269,2.455664 -0.96739,1.079004 -2.23243,1.934765 -1.22783,0.818555 -2.6417,1.413868 -1.41386,0.595312 -2.75332,1.004589 -0.14882,-0.03721 -0.29765,0 -0.14883,0.03721 -0.0744,-0.186035 -0.29765,0.260449 -0.66972,0.334863 -0.33487,0.07442 -0.74414,0.03721 -0.40928,0 -0.85576,-0.03721 -0.40928,-0.03721 -0.78135,0.03721 -0.26045,-0.26045 -0.48369,-0.520899 -0.18604,-0.223242 -0.29766,-0.595312 -0.18603,0 -0.18603,-0.186036 0.0372,-0.186035 -0.11163,-0.186035 0.22325,-0.37207 0.18604,-0.409277 0,-0.07441 -0.11162,-0.111621 -0.0744,-0.03721 -0.14883,-0.07441 -0.0744,-0.07441 -0.0372,-0.186035 0.14883,-0.297657 0.11162,-0.669727 -0.0372,-0.409277 -0.0744,-0.818554 -0.0372,-0.409278 0.0372,-0.781348 0.11162,-0.37207 0.5581,-0.595313 1.26504,0.148829 2.38125,-0.07441 1.15342,-0.260449 2.15801,-0.706933 1.00459,-0.446485 1.89756,-0.967383 0.93017,-0.520898 1.82314,-0.930176 0.11162,-0.334863 0.29766,-0.558105 0.22324,-0.223242 0.44648,-0.409278 0.22325,-0.186035 0.40928,-0.409277 0.18604,-0.223242 0.26045,-0.558105 0.0372,-0.260449 -0.14883,-0.297657 -0.14883,-0.07441 -0.14883,-0.297656 l -0.40927,-0.111621 q -0.70694,-0.409277 -1.59991,-0.669726 -0.89296,-0.297657 -1.52548,-0.63252 -0.40928,0.223242 -0.78135,0.111621 -0.33486,-0.111621 -0.89297,-0.223242 -1.26504,-0.07441 -2.45566,-0.260449 -1.15342,-0.186035 -2.23243,-0.669727 -0.0744,-0.186035 -0.18603,-0.334863 -0.11162,-0.148828 -0.40928,-0.07441 -0.22324,-0.297656 -0.44648,-0.558105 -0.22325,-0.297657 -0.40928,-0.63252 0.0744,-0.446484 0.11162,-0.744141 0.0372,-0.334863 -0.22324,-0.632519 0.14883,-0.483691 0.22324,-0.781348 0.0744,-0.297656 0,-0.781347 z m 39.51386,15.40371 q -1.78594,0.07441 -3.1626,-0.07441 -1.33945,-0.148828 -2.6417,-0.706934 -0.0744,-0.03721 -0.14883,-0.186035 -0.0744,-0.148828 -0.14882,-0.223242 -0.22325,-0.111621 -0.55811,-0.07441 -0.29766,0 -0.5209,-0.07441 -0.29765,-0.148828 -0.93017,-0.558106 -0.63252,-0.446484 -1.15342,-0.818554 -0.66973,-0.520899 -1.26504,-1.041797 -0.59531,-0.520898 -1.0418,-1.116211 -0.11162,-0.148828 -0.29765,-0.148828 -0.18604,-0.03721 -0.33487,-0.111621 -1.079,0.669726 -1.82314,1.674316 -0.74414,1.00459 -1.41387,2.046387 -0.66972,1.041797 -1.41386,1.971972 -0.74415,0.930176 -1.89756,1.413868 -0.33487,0 -0.59532,-0.111622 -0.26045,-0.111621 -0.48369,-0.297656 -0.22324,-0.148828 -0.44648,-0.297656 -0.22324,-0.148828 -0.48369,-0.223242 0,-0.446485 -0.18604,-0.818555 -0.14883,-0.37207 -0.33486,-0.706933 -0.14883,-0.334864 -0.22324,-0.63252 -0.0744,-0.334863 0.14882,-0.632519 -0.22324,-0.223243 -0.66972,-0.483692 0.22324,-0.223242 0.18603,-0.409277 0,-0.186035 -0.0744,-0.37207 -0.0744,-0.186036 -0.14883,-0.409278 -0.0372,-0.223242 0.11162,-0.446484 0.18604,0 0.44649,-0.07441 -0.22325,-0.297656 -0.22325,-0.334863 0.0372,-0.07442 -0.0744,-0.186036 -0.0744,-0.223242 0.0744,-0.260449 0.14883,-0.07441 0.29766,-0.148828 0.14883,-1.823144 0.63252,-3.38584 0.48369,-1.562695 1.079,-3.013769 0.59532,-1.451074 1.15342,-2.939355 0.59531,-1.488282 0.96738,-3.199805 0.40928,-0.409277 0.63252,-0.967383 0.26045,-0.558105 0.5209,-1.116211 0.29766,-0.558105 0.63252,-1.079003 0.37207,-0.558106 1.00459,-0.892969 0.5209,0.03721 0.93018,0.297656 0.40927,0.223242 1.00459,0.186035 0.11162,0.186035 0.18603,0.37207 0.11162,0.186036 0.26045,0.372071 l 0.55811,-0.111621 q 0.40927,0.334863 0.70693,0.855761 0.33486,0.483692 0.44648,1.041797 0.11163,0.558106 -0.0372,1.079004 -0.14883,0.483691 -0.70694,0.781348 0.0372,0.186035 0,0.297656 0,0.07441 -0.0372,0.148828 -0.0372,0.07441 -0.0372,0.148828 0,0.07441 0.11162,0.223242 -0.74414,0.558106 -1.11621,1.562696 -0.37207,1.004589 -0.40928,1.785937 0.44649,-0.446484 0.96739,-0.855762 0.5581,-0.446484 1.11621,-0.855761 0.59531,-0.409278 1.11621,-0.781348 0.5581,-0.37207 1.00459,-0.744141 1.22783,-1.11621 2.34404,-1.785937 1.15342,-0.706934 2.41846,-1.562695 0.29765,-0.07441 0.44648,0 0.18604,0.03721 0.37207,0.111621 0,-0.223242 -0.14883,-0.260449 -0.11162,-0.03721 -0.0744,-0.297657 0.55811,-0.148828 0.96738,-0.334863 0.40928,-0.223242 0.89297,-0.409277 0.33486,0.334863 0.63252,0.706933 0.29766,0.334864 0.81856,0.409278 0.18603,0.409277 0.44648,0.632519 0.26045,0.186035 0.5209,0.372071 0.26045,0.186035 0.44648,0.446484 0.22324,0.260449 0.26045,0.818555 -0.14883,0.260449 -0.33486,0.558105 -0.14883,0.297656 -0.29766,0.706934 -0.74414,0.669726 -1.52549,1.190624 -0.74414,0.520899 -1.52548,1.00459 -0.78135,0.483692 -1.59991,0.967383 -0.81855,0.483691 -1.67431,1.153418 -0.18604,0.260449 -0.48369,0.483691 -0.26045,0.186036 -0.55811,0.409278 -0.29766,0.186035 -0.55811,0.409277 -0.26044,0.223242 -0.40927,0.520898 -0.11162,0.03721 -0.22324,0.03721 -0.11163,0 -0.22325,0.03721 -0.11162,0.26045 -0.37207,0.409278 -0.22324,0.148828 -0.29765,0.409277 0.5581,1.190625 1.45107,1.823145 0.89297,0.632519 2.00918,0.930175 1.11621,0.26045 2.41846,0.297657 1.30224,0 2.71611,0 0.14883,-0.03721 0.11162,-0.148829 0,-0.148828 0.18604,-0.111621 0.89297,0.297657 1.37666,0.855762 0.48369,0.520898 1.15341,1.041797 -0.0744,1.413867 -0.85576,2.344043 -0.78134,0.930176 -2.08359,1.488281 z m 21.84053,-1.785937 q -0.22324,0.632519 -0.66973,1.302246 -0.40928,0.632519 -1.00459,1.153417 -0.5581,0.483692 -1.26504,0.818555 -0.70693,0.334863 -1.48828,0.37207 -0.48369,-0.111621 -0.66972,-0.260449 -0.14883,-0.111621 -0.33487,-0.223242 -0.11162,-0.07441 -0.22324,-0.111621 -0.0744,-0.07441 -0.14883,-0.111621 l -0.44648,-0.186035 0.14883,-0.483692 q 0.0744,-0.297656 -0.0372,-0.446484 -0.11162,-0.186035 -0.44649,-0.483691 -0.11162,-0.111621 -0.22324,-0.223243 -0.11162,-0.111621 -0.18603,-0.223242 l -0.63252,-0.706933 1.00459,-0.26045 q 0.93017,-0.260449 1.22783,-0.669726 0.33486,-0.409277 0.26045,-1.37666 -0.74414,-0.148828 -1.26504,-0.03721 -0.48369,0.111621 -1.00459,0.260449 -0.66973,0.186035 -1.37666,0.334863 -0.66973,0.111621 -1.48828,0.111621 -0.29766,0 -0.55811,0 -0.26045,-0.03721 -0.5581,-0.07441 l -0.37207,-0.07441 q -0.0744,-0.409277 -0.14883,-0.446484 -0.0744,-0.07441 -0.14883,-0.148828 -0.18603,-0.186035 -0.40928,-0.483692 -0.18603,-0.334863 -0.0744,-0.818554 -0.18604,-0.334864 -0.22324,-0.669727 -0.22324,0.446485 -0.33487,0.930176 l -0.14882,0.37207 -0.37207,0.07441 q -0.0744,0.03721 -0.11163,0.186035 -0.0372,0.111622 -0.0372,0.186036 l -0.18604,0.632519 q -0.0744,0.07441 -0.14883,0.148828 -0.0744,0.03721 -0.14882,0.111621 -0.0744,0.334864 -0.18604,0.669727 -0.11162,0.334863 -0.22324,0.632519 -0.18604,0.483692 -0.33486,0.967383 -0.11163,0.446484 -0.0744,0.892969 l -0.14883,0.409277 q -0.18603,0.223242 -0.40927,0.37207 -0.22325,0.111622 -0.44649,0.223243 -0.0744,0.07441 -0.22324,0.148828 -0.11162,0.03721 -0.18604,0.07441 l -0.11162,0.409277 -0.44648,0.07441 q -0.40928,0.07441 -0.59531,0.111621 -0.14883,0.03721 -0.37207,0.03721 l -0.37207,-0.03721 q -0.40928,-0.334863 -0.63252,-0.520898 -0.22325,-0.223242 -0.5209,-0.409277 -0.33487,-0.446485 -0.37207,-0.669727 -0.0372,-0.223242 -0.0744,-0.409277 -0.0744,-0.223242 -0.0744,-0.372071 -0.0372,-0.148828 -0.11162,-0.223242 l -0.48369,-0.446484 0.40927,-0.334863 0.0372,-0.63252 q 0.74414,-1.897558 1.5627,-3.646289 0.85576,-1.74873 1.74873,-3.571875 0.29765,-0.595312 0.5581,-1.190625 0.29766,-0.595312 0.59531,-1.190625 -0.0372,-0.111621 -0.0372,-0.260449 0,-0.148828 0.0744,-0.334863 0.40928,-0.63252 0.66973,-1.116211 0.26045,-0.520898 0.5209,-1.041797 0.29765,-0.632519 0.59531,-1.227832 0.33486,-0.595312 0.81855,-1.227832 l 0.59532,-0.260449 q 0.11162,-0.03721 0.26045,-0.07441 0.14882,-0.07441 0.33486,-0.07441 l 0.5581,0.07441 q 1.0418,-0.483691 1.82315,-1.339453 0.78135,-0.892969 1.5999,-2.120801 l 0.37207,-0.520898 0.48369,0.297656 q 0.18604,0.111621 0.5209,0.223242 0.33486,0.07441 0.70693,0.186035 0.66973,0.148828 1.26504,0.334864 0.59532,0.186035 0.96739,0.558105 0.22324,0.595313 0.26045,0.892969 0.0372,0.297656 0.11162,0.595312 0.11162,0.63252 0.18603,1.265039 0.11162,0.63252 0.14883,1.413867 0.18604,0.63252 0.29766,1.265039 0.14882,0.595313 0.26045,1.227832 0.18603,0.892969 0.37207,1.748731 0.18603,0.818554 0.48369,1.562695 0.29765,0 0.37207,0.03721 0.18603,-0.07441 0.37207,-0.111621 0.22324,-0.03721 0.48369,-0.07441 l 0.40928,-0.03721 0.14882,0.37207 q 0.0372,0.186035 0.37208,0.37207 0.48369,0.03721 0.70693,0.223243 0.22324,0.148828 0.40928,0.334863 0.14882,0.148828 0.29765,0.223242 l 0.55811,0.223242 -0.29766,0.558106 q -0.37207,0.669726 -1.079,1.302246 -0.66973,0.595312 -1.52549,1.00459 0.0372,0.223242 0.0372,0.446484 0.0372,0.186035 0.11162,0.409277 0.11162,0.63252 0.18603,1.302246 0.0744,0.669727 0,1.37666 z m -10.75283,-6.436817 q 1.11621,-0.07441 2.00918,-0.148828 0.93017,-0.111621 2.04638,-0.334863 -0.26045,-1.116211 -0.5581,-2.306836 -0.29766,-1.227832 -0.63252,-2.418457 l -0.22324,0.372071 q -0.74414,0.781347 -1.45108,1.74873 -0.66972,0.967383 -1.15342,1.823144 -0.22324,0.334864 -0.44648,0.669727 -0.22324,0.334863 -0.40928,0.669726 0.22324,-0.03721 0.40928,-0.03721 0.22324,0 0.40928,-0.03721 z"
         id="path1" />
      <path
         style="font-weight:normal;font-family:'Permanent Marker';-inkscape-font-specification:'Permanent Marker';text-align:center;text-anchor:middle;fill:#333333;stroke-opacity:0"
         d="m 88.903117,101.21116 q -1.562695,-0.63252 -2.604492,-1.785942 -1.00459,-1.153418 -1.637109,-2.716113 0.37207,-1.00459 1.190625,-1.674317 0.818554,-0.706933 1.823144,-1.190625 1.041797,-0.483691 2.195215,-0.781347 1.153418,-0.297657 2.232422,-0.520899 0.223242,0.07441 0.223242,0 0,-0.07441 0.186035,0.07441 1.339453,-0.409277 3.088183,-0.781347 1.748731,-0.409278 3.720703,-0.297657 0.26045,-0.148828 0.63252,-0.148828 0.372075,-0.03721 0.781345,-0.03721 0.40928,0 0.78135,0 0.37207,-0.03721 0.63252,-0.148828 0.22324,0.260449 0.66973,0.334863 0.44648,0.03721 0.93017,0.372071 0.14883,0.03721 0,-0.111621 -0.14883,-0.186036 0.0372,-0.26045 0.48369,0 0.85576,0.223243 0.37207,0.223242 0.66973,0.520898 0.33486,0.260449 0.59531,0.483691 0.29766,0.223243 0.63252,0.223243 0.33486,0.409277 0.78135,0.781347 0.48369,0.334863 0.89297,0.706934 0.44648,0.37207 0.70693,0.818554 0.29766,0.446485 0.29766,1.00459 -0.0372,0.223242 0.14882,0.260449 0.18604,0.03721 0.26045,0.223243 0.0372,1.37666 -0.44648,2.381249 -0.44649,1.004592 -1.15342,1.860352 -0.70693,0.81855 -1.52549,1.5627 -0.78135,0.74414 -1.45107,1.5999 0.44648,0.5581 1.00459,1.04179 0.59531,0.44649 1.19062,0.89297 0.59532,0.44649 1.11621,0.96739 0.55811,0.48369 0.93018,1.11621 0.11162,0.22324 0.48369,0.29765 0.11162,0.44649 0.29766,0.93018 0.22324,0.44648 0.40927,0.89297 0.18604,0.40927 0.22325,0.74414 0.0372,0.33486 -0.18604,0.5581 0.26045,0.14883 0.29766,0.48369 0.0372,0.29766 0,0.4837 -0.81856,1.00459 -1.11621,1.41386 -0.29766,0.40928 -0.44649,0.59532 -0.14883,0.18603 -0.29765,0.33486 -0.14883,0.14883 -0.66973,0.59531 -1.97197,1.19063 -4.12998,2.15801 -2.1208,0.93018 -4.427637,1.26504 -0.186035,0.26045 -0.558106,0.40928 -0.334863,0.18603 -0.781347,0.29765 -0.446485,0.11162 -0.967383,0.18604 -0.483692,0.0744 -0.892969,0.14883 -0.186035,-0.0744 -0.223242,-0.26045 0,-0.14883 -0.186035,-0.22325 -0.03721,0.44649 -0.409277,0.44649 -0.334864,0.0372 -0.855762,-0.14883 -0.520899,-0.18604 -1.079004,-0.5209 -0.558105,-0.33486 -0.967383,-0.63252 -0.186035,0.33487 -0.483691,0.70694 -0.260449,0.37207 -0.558106,0.52089 -0.520898,-0.0744 -0.781347,-0.11162 -0.223242,-0.0372 -0.446485,0.18604 -0.297656,-0.14883 -0.446484,-0.33487 -0.148828,-0.14882 -0.297656,-0.33486 -0.148828,-0.14883 -0.334863,-0.26045 -0.186036,-0.14883 -0.558106,-0.26045 0.07441,-0.18603 -0.111621,-0.5581 -0.186035,-0.40928 -0.520898,-0.48369 0.186035,-0.29766 -0.148829,-0.74414 -0.334863,-0.4837 -0.520898,-1.07901 0.03721,-0.26045 0.03721,-0.5209 0.03721,-0.29765 0.07441,-0.52089 0.07441,-0.26045 0.186035,-0.44649 0.111621,-0.18603 0.372071,-0.26045 -0.03721,-0.48369 -0.297657,-0.93017 0.334864,-0.26045 0.446485,-0.63252 0.111621,-0.40928 0.186035,-0.81856 0.111621,-0.40928 0.260449,-0.78135 0.148828,-0.40927 0.483691,-0.66972 -0.07441,-0.11162 -0.148828,-0.18604 -0.07441,-0.0744 -0.07441,-0.26045 0.558106,-0.93017 0.781348,-1.56269 0.223242,-0.66973 0.334863,-1.26504 0.148828,-0.63252 0.297656,-1.33945 0.148828,-0.70694 0.595313,-1.78594 -0.03721,-0.66973 0.148828,-1.19063 0.186035,-0.5209 0.37207,-1.00459 0.223242,-0.52089 0.334864,-1.079 0.111621,-0.55811 -0.03721,-1.302246 -0.63252,0.07441 -0.930176,0.446484 -0.260449,0.372072 -0.334864,1.004592 -0.334863,0.29765 -0.855761,0.29765 -0.520899,-0.0372 -0.930176,0.11163 z m 16.371093,7.18095 q -1.41387,-0.78135 -2.60449,-0.93017 -1.15342,-0.14883 -2.23242,0.0372 -1.041801,0.14883 -2.009183,0.44649 -0.967383,0.29765 -1.934766,0.44648 -0.483691,1.26504 -1.00459,2.79053 -0.520898,1.52549 -1.004589,2.97656 1.339453,-0.18603 2.455663,-0.5581 1.116211,-0.37207 2.158008,-0.81856 1.041797,-0.48369 2.046387,-0.93017 1.00459,-0.4837 2.08359,-0.89297 0.11162,-0.44649 0.48369,-0.70694 0.37208,-0.26045 0.74415,-0.48369 0.37207,-0.26045 0.63252,-0.5581 0.26044,-0.29766 0.18603,-0.81856 z m -2.60449,-11.645798 q -2.30684,-0.07442 -4.53926,0.409277 -2.232421,0.483691 -3.75791,1.413867 0.744141,0.63252 1.525489,1.116211 0.818554,0.483693 1.227832,1.302243 1.785937,-0.70693 3.125389,-1.785934 1.33945,-1.116211 2.41846,-2.455664 z m 30.06328,1.488281 q 0.0372,0.260449 0,0.409277 0,0.111621 -0.0372,0.223242 0,0.111621 0,0.260449 0,0.111622 0.0744,0.372071 -0.78135,1.265038 -1.82315,1.748728 -1.00459,0.44649 -2.19521,0.66973 -1.19063,0.18603 -2.45567,0.40928 -1.22783,0.22324 -2.45566,0.96738 -0.48369,-0.18604 -0.89297,0 -0.37207,0.18603 -1.11621,0.11162 -0.22324,0.22324 -0.55811,0.33486 -0.33486,0.0744 -0.66972,0.18604 0.14882,0.33486 0.11162,0.70693 0,0.33487 0.11162,0.55811 1.30224,0.11162 2.86494,-0.0372 1.5999,-0.14883 3.12539,-0.18603 0.0372,0.18603 -0.0372,0.26044 -0.0744,0.0372 -0.0372,0.18604 0.26045,0.18603 0.52089,0.48369 0.26045,0.26045 0.5209,0.5209 0.26045,0.26045 0.5209,0.44648 0.29766,0.14883 0.66973,0.11162 0.14883,0.29766 0.18603,0.66973 0.0744,0.33486 -0.0744,0.70693 -0.59531,0.40928 -1.19063,0.85577 -0.59531,0.40927 -1.26503,0.74414 -0.63252,0.33486 -1.37666,0.5581 -0.70694,0.18604 -1.59991,0.14883 -0.18603,0 -0.29765,0 -0.0744,0 -0.22325,-0.11162 -0.29765,0.18603 -0.85576,0.11162 -0.5209,-0.0744 -0.81855,0.11162 -0.40928,-0.18603 -1.00459,-0.14883 -0.55811,0 -1.00459,-0.14882 -0.59531,0.78134 -1.07901,1.67431 -0.48369,0.89297 -0.85576,1.89756 1.26504,0.18604 2.0836,0.14883 0.85576,-0.0372 1.5999,-0.11162 0.74414,-0.11162 1.52549,-0.18604 0.78134,-0.11162 1.97197,-0.0744 0.74414,-0.40928 1.74873,-0.5209 1.0418,-0.14883 1.89756,-0.44648 0.29765,0.11162 0.5209,0.40927 0.22324,0.26045 0.40927,0.5209 0.22325,0.22324 0.44649,0.40928 0.22324,0.18603 0.5581,0.14883 0.14883,0.14882 0.18604,0.37207 0.0744,0.18603 0.11162,0.37207 0.0372,0.18603 0.11162,0.33486 0.11162,0.11162 0.33486,0.0744 -0.5581,1.22784 -1.30224,1.89756 -0.70693,0.63252 -1.63711,0.96739 -0.93018,0.33486 -2.08359,0.52089 -1.11622,0.18604 -2.49288,0.44649 -0.33486,0.0744 -0.5581,-0.0372 -0.22324,-0.0744 -0.5209,-0.0744 -0.85576,0.18603 -2.04639,0.33486 -1.19062,0.14883 -2.41845,0.11162 -1.22783,-0.0372 -2.34405,-0.33486 -1.11621,-0.26045 -1.82314,-0.96738 -0.29766,-0.26045 -0.40928,-0.59532 -0.0744,-0.37207 -0.48369,-0.5581 -0.0372,-0.48369 -0.14883,-1.07901 -0.11162,-0.59531 -0.22324,-1.22783 -0.11162,-0.66972 -0.18603,-1.30224 -0.0372,-0.63252 0.0744,-1.15342 0.11162,-0.55811 0.44648,-1.00459 0.37207,-0.44649 0.26045,-0.96738 0.18604,-0.0372 0.22325,-0.18604 0.0372,-0.18603 0.29765,-0.14883 0.22324,-0.66972 0.48369,-1.26504 0.26045,-0.59531 0.5209,-1.15341 0.29766,-0.55811 0.55811,-1.11622 0.29765,-0.59531 0.5581,-1.30224 -0.5209,-0.48369 -0.78135,-1.0418 -0.22324,-0.59531 -0.33486,-1.15342 -0.11162,-0.59531 -0.18603,-1.19062 -0.0744,-0.63252 -0.26045,-1.26504 0.37207,-0.55811 0.89297,-0.892969 0.5581,-0.37207 1.19062,-0.595313 0.63252,-0.223242 1.37666,-0.37207 0.74414,-0.148828 1.5627,-0.334863 1.48828,-0.483691 2.6417,-0.744141 1.19062,-0.260449 2.30683,-0.409277 1.15342,-0.186035 2.38125,-0.334863 1.22783,-0.148828 2.79053,-0.446485 0.33486,0.334864 0.63252,0.334864 0.14883,-0.334864 0.33486,-0.186036 0.22324,0.111622 0.18604,-0.223242 0.37207,0.63252 0.93017,1.079004 0.59531,0.409277 1.30225,0.706934 z m 3.12539,22.398627 q -0.18604,-0.0744 -0.40928,-0.14882 l -0.44649,-0.81856 -0.59531,0.44649 q -0.26045,-0.14883 -0.40928,-0.29766 -0.14882,-0.11162 -0.33486,-0.29766 -0.40928,-0.29765 -0.70693,-0.59531 -0.29766,-0.33486 -0.33487,-0.63252 l -0.0372,-0.37207 -0.37207,-0.0744 q -0.18604,-0.5209 -0.29766,-0.74414 -0.11162,-0.26045 -0.37207,-0.40928 -0.22324,-1.86035 0.14883,-3.08818 0.37207,-1.26504 1.11621,-2.67891 0.44648,-0.14883 0.78135,-0.40928 0.37207,-0.26045 0.66972,-0.5209 0.29766,-0.26045 0.59532,-0.44648 0.29765,-0.22324 0.5581,-0.26045 l 0.33486,-0.18603 q 0.63252,-0.74415 1.52549,-1.30225 0.89297,-0.59531 1.86035,-1.19063 0.78135,-0.44648 1.5627,-0.93017 0.81855,-0.5209 1.45107,-1.11621 0.29766,0.0372 0.5209,-0.11162 0.14883,-0.18604 0.14883,-0.48369 0.0744,-0.0744 0.14883,-0.11163 0.11162,-0.0744 0.18603,-0.14882 0.26045,-0.18604 0.70694,-0.44649 0.44648,-0.26045 0.59531,-0.66972 l 0.81855,-0.78135 -1.11621,0.0372 q -0.85576,0.0372 -1.82314,0.11163 -0.93018,0.0744 -1.5999,0.14882 -0.55811,0.0744 -1.15342,0.11162 -0.59531,0 -1.30225,0.0372 -1.15342,-0.74414 -1.67431,-2.19521 -0.48369,-1.488284 -0.0372,-2.902151 0.26045,-0.03721 0.44648,-0.111621 0.18604,-0.111621 0.37207,-0.186035 0.33487,-0.03721 0.44649,0 0.11162,0.03721 0.29765,0.03721 1.0418,-0.186035 1.71153,-0.223243 0.70693,-0.07441 1.30224,-0.07441 0.63252,0 1.22784,0.07441 0.59531,0.03721 1.15341,0.223243 1.30225,0 2.6417,-0.111621 1.33946,-0.111622 2.75332,0.186035 1.00459,-0.334864 1.97198,-0.186035 1.00459,0.148828 1.74873,0.892968 0.0372,0.63252 0.29765,0.967383 0.29766,0.297656 0.74414,0.446484 0.29766,1.079006 0.0372,1.897556 -0.22324,0.81856 -0.78135,1.45108 -0.5581,0.63252 -1.33945,1.15342 -0.74414,0.48369 -1.48828,0.93017 -0.22324,0.33486 -0.55811,0.55811 -0.29765,0.18603 -0.5581,0.48369 -1.22783,1.56269 -2.82774,2.75332 -1.56269,1.15342 -3.23701,2.23242 -1.19062,0.78135 -2.38125,1.5999 -1.15342,0.78135 -2.23242,1.71153 l -0.37207,0.33486 0.33486,0.37207 q 0.44649,0.44648 1.0418,0.44648 0.33486,0 0.63252,-0.0744 0.33486,-0.11162 0.63252,-0.22324 0.29765,-0.0744 0.5209,-0.14883 0.22324,-0.11162 0.40927,-0.11162 h 0.4837 q 0.29765,-0.18604 0.59531,-0.29766 0.29765,-0.11162 0.59531,-0.18603 0.29766,-0.0744 0.55811,-0.14883 0.26045,-0.0744 0.5581,-0.26045 0.81856,0 1.52549,-0.22324 0.74414,-0.22325 1.48828,-0.5209 0.44649,-0.18604 0.85576,-0.33486 0.44649,-0.14883 0.89297,-0.22325 0.14883,0.18604 0.33486,0.33487 0.22325,0.11162 0.40928,0.22324 0.48369,0.29765 0.5209,0.5581 l 0.11162,1.0418 0.70694,-0.70693 q 0.44648,0.37207 0.48369,0.85576 0.0372,0.44648 -0.11162,1.19062 -1.19063,1.19063 -2.97657,1.86036 -1.78593,0.66972 -3.79511,1.30224 -0.40928,0.11162 -0.85577,0.22324 -0.40927,0.11162 -0.81855,0.26045 l 0.0372,-0.63252 -0.81856,0.5209 q -0.14883,0.11162 -0.26045,0.22324 -0.0744,0.11162 -0.14883,0.22325 -0.96738,0.26045 -1.5999,0.37207 -0.63252,0.11162 -1.19062,0.22324 -0.63252,0.14883 -1.19063,0.22324 -0.5581,0.11162 -1.19062,0.11162 -0.18604,0 -0.40928,0 -0.22324,0 -0.44648,-0.0372 z"
         id="path2" />
      <path
         style="font-weight:normal;font-family:'Permanent Marker';-inkscape-font-specification:'Permanent Marker';text-align:center;text-anchor:middle;fill:#333333;stroke-opacity:0"
         d="m 42.729193,140.48367 q 0,-0.40927 0.111621,-0.74414 0.111621,-0.33486 0.03721,-0.85576 1.153418,-2.45566 2.604492,-4.53926 1.488282,-2.1208 3.534668,-3.7207 0.334863,-0.26045 0.520899,-0.5209 0.223242,-0.29765 0.409277,-0.5581 0.223242,-0.26045 0.483691,-0.44649 0.260449,-0.22324 0.669727,-0.29765 0.930176,-1.07901 2.232422,-1.97198 1.302246,-0.89296 2.716113,-1.71152 1.413867,-0.81855 2.827734,-1.67432 1.451074,-0.85576 2.604492,-1.86035 0.409277,0.26045 0.63252,0.18604 0.260449,-0.11162 0.520898,-0.0372 0.334863,0.70693 0.855762,1.00459 0.558105,0.26045 1.116211,0.55811 0.595312,0.26045 1.079003,0.66972 0.520899,0.37207 0.781348,1.0418 -0.260449,0 -0.260449,0.18603 0.03721,0.18604 0.111621,0.40928 0.07441,0.22324 0.07441,0.40928 0,0.18603 -0.334863,0.18603 0,0.26045 0.260449,0.26045 0.260449,0 0.260449,0.26045 0,0.22325 -0.111621,0.37207 -0.07441,0.11162 0,0.40928 -0.892969,0.59531 -2.009179,1.15342 -1.079004,0.5209 -2.306836,1.11621 -1.190625,0.59531 -2.455664,1.30225 -1.227832,0.66972 -2.455664,1.56269 -1.227832,0.89297 -2.492871,1.97197 -1.227832,1.07901 -2.38125,2.30684 -1.153418,1.19062 -2.158008,2.49287 -1.00459,1.26504 -1.711523,2.49287 0.07441,0.18604 0.186035,0.33486 0.148828,0.14883 0.223242,0.33487 1.413867,0.0744 2.641699,0 1.227832,-0.11162 2.455664,0.14883 0.148828,-0.11163 0.186035,-0.29766 0.03721,-0.18604 0.223242,-0.26045 2.530078,-0.26045 4.725293,-0.81855 2.195215,-0.59532 4.464844,-1.19063 -0.669727,-0.26045 -1.190625,-0.40928 -0.223242,-0.22324 0,-0.37207 0.260449,-0.18603 0.409277,-0.37207 -0.595312,-0.33486 -1.00459,-0.89297 -0.37207,-0.5581 -0.446484,-1.45107 0.260449,-0.22324 0.260449,-0.5209 0,-0.29765 -0.260449,-0.48369 -0.186035,-0.0744 -0.223242,0 -0.03721,0.0744 -0.07441,0.14883 0,0.0744 -0.07441,0.14883 -0.03721,0.0744 -0.186035,0 0.03721,-0.40928 0.186035,-0.66973 0.148828,-0.26045 0.223242,-0.63252 l 3.088183,-2.04639 q 0.483692,0.37207 1.190625,0.78135 0.706934,0.40928 1.488282,0.81856 0.781347,0.40927 1.599902,0.85576 0.818554,0.40927 1.525488,0.81855 0.669727,0.29766 1.153418,0.74414 0.483691,0.40928 0.930176,0.89297 0.446484,0.44649 0.892968,0.89297 0.446485,0.44648 1.079004,0.74414 -0.07441,0.59531 0.07441,0.96738 0.148828,0.37207 0.07441,0.89297 -0.706933,1.26504 -1.711523,2.15801 -1.00459,0.85576 -2.269629,1.48828 -1.227832,0.63252 -2.641699,1.07901 -1.413867,0.40927 -2.902148,0.81855 -1.488281,0.37207 -3.01377,0.81855 -1.488281,0.40928 -2.939355,0.96739 -0.632519,0 -1.079004,0.0372 -0.446484,0.0372 -0.855762,0.11163 -0.409277,0.0744 -0.818554,0.14882 -0.409278,0.0744 -0.892969,0.11162 -0.186035,-0.0372 -0.260449,0.0744 -0.03721,0.11162 -0.148828,0.18603 -0.744141,0.11162 -1.339453,0.11162 -0.595313,0 -1.00459,0 -0.520899,0 -1.079004,0.14883 -0.558105,0.14883 -1.041797,0.11162 -3.348632,-0.14882 -5.246191,-2.38125 -1.897559,-2.23242 -2.083594,-6.13916 0.03721,-0.18603 -0.07441,-0.22324 -0.111621,-0.0744 -0.186035,-0.14883 z m 39.885936,8.40879 q -1.041797,0.33487 -2.269629,0.66973 -1.227832,0.33486 -2.455664,0.33486 -1.860351,0 -2.939355,-0.93017 -0.186035,-0.40928 -0.334863,-0.55811 -0.111621,-0.14883 -0.223242,-0.29766 -0.07442,-0.18603 -0.111622,-0.48369 -0.446484,-0.52089 -0.706933,-1.19062 -0.260449,-0.70693 -0.37207,-1.41387 -0.07441,-0.74414 -0.03721,-1.48828 0.07441,-0.74414 0.260449,-1.41387 0.07441,-0.14882 0.07441,-0.29765 0.03721,-0.14883 0.07441,-0.33487 0.148828,-0.59531 0.297656,-1.15341 0.186035,-0.55811 0.483691,-0.96739 -0.148828,-0.33486 0,-0.74414 0.148829,-0.40927 0.334864,-0.74414 0.520898,-1.41387 0.855761,-2.38125 0.372071,-1.00459 0.744141,-1.97197 0.63252,-1.67432 1.190625,-3.31143 0.558105,-1.63711 1.00459,-3.53466 0.297656,-0.18604 0.446484,-0.26045 0.223242,-0.0744 0.37207,-0.11162 0.669727,0.33486 1.562696,0.66972 0.892968,0.29766 1.488281,0.29766 0.297656,0.18603 0.37207,0.29765 0.07441,0.0744 0.148828,0.14883 0.409278,0.48369 0.706934,1.00459 0.297656,0.48369 0.186035,1.30225 -0.223242,0.33486 -0.334863,0.33486 -0.186035,0.74414 -0.409278,1.26504 -0.186035,0.5209 -0.409277,1.0418 -0.260449,0.5581 -0.483691,1.11621 -0.223242,0.5581 -0.372071,1.37666 -0.148828,0.18603 -0.223242,0.33486 -0.03721,0.14883 -0.111621,0.33487 -0.07441,0.18603 -0.186035,0.40927 -0.07441,0.18604 -0.260449,0.33487 -0.111621,0.96738 -0.372071,1.56269 -0.223242,0.59531 -0.483691,1.19063 -0.446484,1.079 -0.818555,2.158 -0.334863,1.07901 -0.409277,2.45567 0.186035,-0.0744 0.334863,-0.0744 0.186036,0 0.334864,0 0.334863,0 0.781347,0.11162 1.116211,-0.59531 2.418457,-0.70693 1.339453,-0.11162 2.641699,-0.14883 0.520899,0 1.041797,0 0.520899,0 0.967383,-0.0744 0.334863,0.18603 0.409277,0.22324 0.111621,0 0.297656,0 0.26045,0 0.446485,0.0372 0.446484,0.40928 0.855762,0.59531 0.409277,0.18604 0.855761,0.33486 0.409278,0.14883 0.781348,0.33487 0.409277,0.14883 0.781347,0.44648 l 0.26045,1.5999 q 0.260449,0.33487 0.223242,0.44649 0,0.29765 -0.148828,0.44648 l 0.07441,0.40928 q -0.558106,0.11162 -0.781348,0.26045 -0.186035,0.14883 -0.37207,0.33486 -0.297656,0.0372 -0.446484,0.0372 -0.111622,0 -0.223243,0 -0.520898,0 -1.265039,0.18603 -1.004589,-0.33486 -2.083593,-0.33486 -0.409278,0 -0.855762,0.0372 -0.446484,0.0372 -0.892969,0.0744 -0.446484,0.0744 -0.930175,0.11162 -0.446485,0.0372 -0.930176,0.0372 z m 30.919041,-20.76152 q 0.0744,0.81855 0.26045,1.41387 0.18603,0.59531 0.40928,1.15342 0.18603,0.52089 0.33486,1.04179 0.18603,0.48369 0.26045,1.19063 -0.29766,0.96738 -0.44649,1.78593 -0.11162,0.81856 -0.26044,1.71153 -0.59532,1.30224 -1.15342,2.30683 -0.55811,1.00459 -0.89297,1.74873 -0.18604,0.18604 -0.33486,0.44649 -0.11163,0.22324 -0.26045,0.48369 -0.0744,0.11162 -0.18604,0.33486 -0.11162,0.22325 -0.18603,0.29766 l -0.74414,-0.26045 -0.14883,0.93018 -0.5209,0.14882 -0.37207,0.44649 q -0.70694,1.22783 -1.48828,2.08359 -0.78135,0.81856 -1.78594,1.48828 -0.96738,0.63252 -2.23242,1.19063 -1.22783,0.5581 -2.79053,1.22783 -0.63252,-0.0744 -1.11621,-0.0744 -0.446485,-0.0372 -0.855762,-0.0744 -0.706934,0 -1.74873,-0.11162 -0.111621,-0.29766 -0.334864,-0.40928 -0.223242,-0.11162 -0.409277,-0.11162 -0.632519,-0.29765 -0.967383,-0.85576 -0.297656,-0.59531 -0.595312,-1.26504 -0.186035,-0.40928 -0.37207,-0.74414 -0.186036,-0.37207 -0.409278,-0.74414 l 0.63252,-0.18603 -0.818555,-0.89297 q -0.07441,-0.11162 -0.186035,-0.18604 -0.111621,-0.11162 -0.186035,-0.22324 l -0.03721,-0.59531 q -0.111621,-2.56729 -0.111621,-4.68809 0.03721,-2.15801 0.595312,-3.83232 v -0.40928 q 0.111621,-0.81856 0.223242,-1.33945 0.111621,-0.55811 0.186035,-1.0418 0.111622,-0.81855 0.334864,-1.52549 0.520898,-0.11162 0.781347,-0.40928 0.26045,-0.33486 0.446485,-0.59531 0.520898,-0.0372 0.706933,0.14883 0.186035,0.18603 0.372071,0.59531 0.186035,0.33487 0.446484,0.74414 0.297656,0.40928 0.855762,0.63252 0.07441,0.29766 0.186035,0.63252 0.148828,0.29766 0.297656,0.66973 0.297656,0.63252 0.520898,1.33945 0.26045,0.66973 0.297657,1.30225 -0.372071,0.70693 -0.595313,1.63711 -0.186035,0.93017 -0.260449,1.89756 -0.03721,0.93017 0.03721,1.82314 0.111621,0.85576 0.334863,1.45107 l 0.223242,0.4837 0.632518,-0.0744 q 1.11621,-0.29765 2.00918,-0.63252 0.93018,-0.37207 1.71152,-0.85576 0.78135,-0.48369 1.48829,-1.11621 0.70693,-0.66973 1.48828,-1.52549 0.78134,-0.85576 1.33945,-1.93476 0.59531,-1.11622 0.96738,-2.30684 0.40928,-1.19063 0.59532,-2.34404 0.22324,-1.19063 0.29765,-2.23243 0.63252,-0.22324 0.63252,-0.89296 l -0.0744,-0.40928 q -0.14883,-0.22324 0,-0.5209 0.22324,-0.70693 1.04179,-1.079 0.59532,0.37207 1.0418,0.81855 0.48369,0.44649 0.89297,0.89297 z m 21.50566,3.27422 q -0.93017,0 -2.00918,0.14883 -1.079,0.11162 -2.1208,0.26045 -0.74414,0.11162 -1.45107,0.18603 -0.66973,0.0744 -1.22783,0.11162 -0.26045,0.81856 -0.5209,1.45108 -0.26045,0.63252 -0.55811,1.22783 -0.29765,0.63252 -0.5581,1.30224 -0.22325,0.63252 -0.44649,1.37666 -0.37207,0.59532 -0.63252,1.11622 -0.22324,0.48369 -0.37207,1.11621 -0.44648,0.5581 -0.66972,1.19062 -0.22325,0.59531 -0.33487,1.0418 l -0.14883,0.44648 q -0.22324,0.22324 -0.26044,0.37207 -0.0372,0.11162 -0.18604,0.22324 -0.0372,0.40928 -0.26045,0.81856 -0.0744,0.18603 -0.11162,0.37207 -0.0372,0.14883 -0.0372,0.22324 0,0.37207 -0.18603,0.48369 0.0372,0.18604 0,0.40928 -0.0372,0.18604 -0.0744,0.37207 -0.11162,0.44649 -0.0744,0.70693 0.11162,0.14883 0.18603,0.26045 0.11163,0.11162 0.14883,0.29766 0.22324,0.14883 0.33487,0.18604 0.14882,0.11162 0.44648,0.26044 l 0.33486,0.37207 q 0.18604,1.07901 -0.33486,1.71153 -0.55811,0.70693 -1.89756,0.70693 h -0.44648 q -0.18604,-0.18603 -0.22324,-0.29765 -0.29766,-0.11163 -0.4837,-0.18604 -0.18603,-0.0744 -0.33486,-0.29766 -0.48369,-0.22324 -0.78135,-0.37207 l -0.33486,-0.18603 q 0,-0.40928 0,-0.44649 -0.26045,-0.33486 -0.40928,-0.74414 -0.11162,-0.40927 -0.18603,-0.81855 -0.0744,-0.33486 -0.18604,-0.63252 -0.0744,-0.29766 -0.22324,-0.5209 -0.0744,-2.15801 0.40928,-3.64629 0.48369,-1.48828 1.00459,-2.86494 0.29765,-0.74414 0.59531,-1.48828 0.29766,-0.78135 0.5209,-1.5999 l 0.33486,-0.37207 q 0.26045,-0.59532 0.40928,-0.96739 0.18603,-0.40927 0.37207,-0.81855 0.11162,-0.26045 0.18603,-0.48369 0.11163,-0.26045 0.18604,-0.44649 -0.22324,0 -0.40928,0.0372 -0.18603,0 -0.37207,0.0372 -0.22324,0.0372 -0.40928,0.0744 -0.18603,0 -0.37207,0 -0.26045,0 -0.37207,-0.0372 -0.40927,0.18604 -0.89297,0.18604 h -0.37207 q -0.11162,0 -0.22324,0 -0.0744,-0.0372 -0.14883,-0.0372 -0.37207,0 -0.59531,0.11162 -0.44648,0 -0.85576,0 h -0.37207 q -0.0744,0 -0.18604,0.0372 -0.11162,0 -0.18603,0 -0.26045,0 -0.55811,-0.0372 -0.29765,-0.0744 -0.63252,-0.26045 -0.44648,-0.59531 -0.59531,-0.63251 l -0.33486,-0.44649 q -0.0372,-0.22324 -0.11162,-0.40928 -0.0744,-0.22324 -0.14883,-0.48369 -0.14883,-0.37207 -0.29766,-0.78135 -0.11162,-0.44648 -0.11162,-1.04179 0.0372,-0.29766 0.14883,-0.44649 0.11162,-0.14882 0.18604,-0.26045 l 0.11162,-0.5581 0.48369,0.0372 h 1.04179 q 1.19063,0 2.41846,-0.0744 1.22783,-0.11162 2.53008,-0.22324 0.74414,-0.0744 1.48828,-0.14883 0.78135,-0.0744 1.5999,-0.14883 0.14883,-0.33486 0.29766,-0.63252 l 0.37207,-0.18603 q 0.66973,-0.0372 0.93018,0.18603 0.29765,0.18604 0.48369,0.37207 0.81855,-0.0744 1.63711,-0.14882 0.85576,-0.11162 1.71152,-0.26045 1.26504,-0.18604 2.53008,-0.33487 1.30224,-0.14882 2.49287,-0.14882 0.5209,0 1.00459,0.0372 0.48369,0.0372 0.89297,0.11162 l 0.37207,0.26045 q 0.11162,0.22325 0.29765,0.40928 0.22325,0.18604 0.44649,0.37207 0.44648,0.40928 0.89297,0.96738 0.44648,0.55811 0.33486,1.63711 -0.29766,0.44649 -0.44648,0.5209 l -0.33487,0.44649 -0.37207,-0.0372 q -0.22324,0 -0.40928,0.0744 -0.18603,0.0372 -0.37207,0.11162 -0.14882,0.0744 -0.29765,0.14883 -0.14883,0.0372 -0.33486,0.0744 -0.33487,0 -0.55811,0 -0.18604,-0.0372 -0.40928,-0.0372 z m 17.85938,-3.05098 q 0.0372,0.26045 0,0.40928 0,0.11162 -0.0372,0.22324 0,0.11162 0,0.26045 0,0.11162 0.0744,0.37207 -0.78135,1.26504 -1.82315,1.74873 -1.00459,0.44649 -2.19521,0.66973 -1.19063,0.18603 -2.45567,0.40928 -1.22783,0.22324 -2.45566,0.96738 -0.48369,-0.18604 -0.89297,0 -0.37207,0.18603 -1.11621,0.11162 -0.22324,0.22324 -0.55811,0.33486 -0.33486,0.0744 -0.66972,0.18604 0.14883,0.33486 0.11162,0.70693 0,0.33486 0.11162,0.55811 1.30225,0.11162 2.86494,-0.0372 1.5999,-0.14883 3.12539,-0.18604 0.0372,0.18604 -0.0372,0.26045 -0.0744,0.0372 -0.0372,0.18604 0.26045,0.18603 0.5209,0.48369 0.26044,0.26045 0.52089,0.5209 0.26045,0.26045 0.5209,0.44648 0.29766,0.14883 0.66973,0.11162 0.14883,0.29766 0.18603,0.66973 0.0744,0.33486 -0.0744,0.70693 -0.59531,0.40928 -1.19063,0.85577 -0.59531,0.40927 -1.26503,0.74414 -0.63252,0.33486 -1.37666,0.5581 -0.70694,0.18604 -1.59991,0.14883 -0.18603,0 -0.29765,0 -0.0744,0 -0.22324,-0.11162 -0.29766,0.18603 -0.85577,0.11162 -0.5209,-0.0744 -0.81855,0.11162 -0.40928,-0.18603 -1.00459,-0.14883 -0.55811,0 -1.00459,-0.14883 -0.59531,0.78135 -1.079,1.67432 -0.4837,0.89297 -0.85577,1.89756 1.26504,0.18603 2.0836,0.14883 0.85576,-0.0372 1.5999,-0.11162 0.74414,-0.11162 1.52549,-0.18604 0.78135,-0.11162 1.97197,-0.0744 0.74414,-0.40928 1.74873,-0.5209 1.0418,-0.14883 1.89756,-0.44649 0.29766,0.11163 0.5209,0.40928 0.22324,0.26045 0.40928,0.5209 0.22324,0.22324 0.44648,0.40928 0.22324,0.18603 0.5581,0.14883 0.14883,0.14882 0.18604,0.37207 0.0744,0.18603 0.11162,0.37207 0.0372,0.18603 0.11162,0.33486 0.11162,0.11162 0.33487,0.0744 -0.55811,1.22784 -1.30225,1.89756 -0.70693,0.63252 -1.63711,0.96739 -0.93018,0.33486 -2.08359,0.52089 -1.11621,0.18604 -2.49287,0.44649 -0.33487,0.0744 -0.55811,-0.0372 -0.22324,-0.0744 -0.5209,-0.0744 -0.85576,0.18603 -2.04639,0.33486 -1.19062,0.14883 -2.41845,0.11162 -1.22783,-0.0372 -2.34404,-0.33486 -1.11622,-0.26045 -1.82315,-0.96738 -0.29766,-0.26045 -0.40928,-0.59532 -0.0744,-0.37207 -0.48369,-0.5581 -0.0372,-0.48369 -0.14883,-1.07901 -0.11162,-0.59531 -0.22324,-1.22783 -0.11162,-0.66973 -0.18603,-1.30224 -0.0372,-0.63252 0.0744,-1.15342 0.11162,-0.55811 0.44648,-1.00459 0.37208,-0.44649 0.26045,-0.96739 0.18604,-0.0372 0.22325,-0.18603 0.0372,-0.18604 0.29765,-0.14883 0.22324,-0.66972 0.48369,-1.26504 0.26045,-0.59531 0.5209,-1.15342 0.29766,-0.5581 0.55811,-1.11621 0.29765,-0.59531 0.5581,-1.30224 -0.5209,-0.48369 -0.78134,-1.0418 -0.22325,-0.59531 -0.33487,-1.15342 -0.11162,-0.59531 -0.18603,-1.19062 -0.0744,-0.63252 -0.26045,-1.26504 0.37207,-0.55811 0.89297,-0.89297 0.5581,-0.37207 1.19062,-0.59531 0.63252,-0.22324 1.37666,-0.37207 0.74414,-0.14883 1.5627,-0.33487 1.48828,-0.48369 2.6417,-0.74414 1.19062,-0.26045 2.30683,-0.40927 1.15342,-0.18604 2.38125,-0.33487 1.22783,-0.14882 2.79053,-0.44648 0.33486,0.33486 0.63252,0.33486 0.14883,-0.33486 0.33486,-0.18603 0.22324,0.11162 0.18604,-0.22325 0.37207,0.63252 0.93017,1.07901 0.59532,0.40928 1.30225,0.70693 z m 6.73447,14.17588 q -0.33486,0.0744 -0.48369,0.40928 -0.14883,0.29765 -0.29766,0.63252 -0.11162,0.33486 -0.26045,0.63252 -0.11162,0.26045 -0.37207,0.26045 -0.0372,0.29765 -0.22324,0.52089 -0.14883,0.22325 -0.29766,0.4837 -0.14882,0.22324 -0.22324,0.52089 -0.0744,0.26045 0.0744,0.63252 -0.29766,0.22325 -0.37207,0.63252 -0.0744,0.40928 -0.18604,0.78135 -0.0744,0.37207 -0.29765,0.63252 -0.22325,0.26045 -0.81856,0.22324 -0.11162,0.14883 -0.0372,0.18604 0.0744,0.0372 0.11162,0.26045 -0.40927,-0.0744 -0.63252,0.0372 -0.18603,0.14883 -0.48369,0.18604 -0.70693,-0.22324 -1.19062,-0.78135 -0.44649,-0.5581 -0.81856,-1.22783 -0.33486,-0.70693 -0.63252,-1.41387 -0.26044,-0.70693 -0.52089,-1.22783 0.11162,-0.40928 0.0372,-0.78135 -0.0744,-0.40927 -0.26045,-0.66972 1.82315,-3.86953 3.98116,-8.25996 2.158,-4.39043 4.09277,-8.66924 0.85576,0.33486 1.67432,0.78135 0.85576,0.40927 1.52548,0.96738 0.70694,0.5581 1.19063,1.30224 0.48369,0.70694 0.63252,1.59991 -0.0744,0.22324 -0.18604,0.18603 -0.0744,-0.0744 -0.14882,0.0372 0.14882,0.18603 0.14882,0.26045 0.0372,0.0744 0,0.14883 0,0.0744 0,0.22324 0,0.11162 0.11162,0.33486 -0.14882,-0.0372 -0.22324,0.0372 -0.0372,0.0744 -0.22324,0 0.14883,0.40928 0.0744,0.66972 -0.0372,0.26045 -0.14882,0.4837 -0.11163,0.18603 -0.18604,0.44648 -0.0744,0.22324 0.0372,0.59531 -0.11162,0 -0.18604,0.0744 -0.0372,0.0372 -0.0744,0.11162 -0.0372,0.0372 -0.11162,0.11162 -0.0372,0.0372 -0.14883,0 0.11162,0.81855 0.0744,1.63711 -0.0372,0.81855 -0.0744,1.67432 0,0.81855 0.0372,1.74873 0.0372,0.89296 0.26045,1.86035 1.33945,-0.78135 2.1208,-2.00918 0.81855,-1.22783 1.30224,-2.75332 0.5209,-1.52549 0.78135,-3.27422 0.26045,-1.74873 0.55811,-3.57188 0.33486,-0.33486 0.52089,-0.81855 0.18604,-0.48369 0.33487,-1.00459 0.14883,-0.55811 0.29765,-1.079 0.14883,-0.55811 0.37207,-1.00459 0.55811,0.0744 0.93018,0.37207 0.40928,0.26045 0.74414,0.59531 0.33486,0.29765 0.70693,0.59531 0.37207,0.26045 0.93018,0.33486 0.44648,0.63252 0.81855,1.22784 0.37207,0.59531 0.4837,1.26504 -0.18604,0.29765 -0.29766,0.66972 -0.0744,0.37207 -0.18604,0.74414 -0.11162,0.37207 -0.29765,0.70694 -0.18604,0.29765 -0.5209,0.52089 -0.11162,0.96739 -0.29766,1.78594 -0.14883,0.78135 -0.33486,1.5627 -0.14883,0.78134 -0.26045,1.63711 -0.11162,0.81855 -0.0744,1.82314 -0.29766,0.85576 -0.63252,1.82315 -0.33487,0.96738 -0.5209,1.74873 -0.59531,0.48369 -0.93018,1.15341 -0.33486,0.66973 -0.70693,1.33946 -0.14883,0.14882 -0.18604,0.0744 -0.0372,-0.0744 -0.26045,-0.11162 0.0372,0.14883 0,0.22324 -0.0372,0.0744 -0.11162,0.14883 -0.0372,0.0372 -0.0744,0.14883 0,0.11162 0.0744,0.29765 -0.52089,0.22325 -0.93017,0.63252 -0.40928,0.40928 -0.89297,0.74414 -0.44649,0.33487 -1.11621,0.44649 -0.63252,0.11162 -1.67432,-0.26045 -1.52549,-1.11621 -2.71611,-2.56729 -1.15342,-1.45107 -1.89756,-3.46025 z m 35.83038,-14.39912 q 0.0744,0.81855 0.26044,1.41387 0.18604,0.59531 0.40928,1.15342 0.18604,0.52089 0.33487,1.04179 0.18603,0.48369 0.26044,1.19063 -0.29765,0.96738 -0.44648,1.78593 -0.11162,0.81856 -0.26045,1.71153 -0.59531,1.30224 -1.15342,2.30683 -0.5581,1.00459 -0.89297,1.74873 -0.18603,0.18604 -0.33486,0.44649 -0.11162,0.22324 -0.26045,0.48369 -0.0744,0.11162 -0.18603,0.33486 -0.11162,0.22325 -0.18604,0.29766 l -0.74414,-0.26045 -0.14883,0.93018 -0.5209,0.14882 -0.37207,0.44649 q -0.70693,1.22783 -1.48828,2.08359 -0.78134,0.81856 -1.78593,1.48828 -0.96739,0.63252 -2.23243,1.19063 -1.22783,0.5581 -2.79052,1.22783 -0.63252,-0.0744 -1.11621,-0.0744 -0.44649,-0.0372 -0.85577,-0.0744 -0.70693,0 -1.74873,-0.11162 -0.11162,-0.29766 -0.33486,-0.40928 -0.22324,-0.11162 -0.40928,-0.11162 -0.63252,-0.29765 -0.96738,-0.85576 -0.29766,-0.59531 -0.59531,-1.26504 -0.18604,-0.40928 -0.37207,-0.74414 -0.18604,-0.37207 -0.40928,-0.74414 l 0.63252,-0.18603 -0.81856,-0.89297 q -0.0744,-0.11162 -0.18603,-0.18604 -0.11162,-0.11162 -0.18604,-0.22324 l -0.0372,-0.59531 q -0.11162,-2.56729 -0.11162,-4.68809 0.0372,-2.15801 0.59531,-3.83232 v -0.40928 q 0.11162,-0.81856 0.22324,-1.33945 0.11162,-0.55811 0.18604,-1.0418 0.11162,-0.81855 0.33486,-1.52549 0.5209,-0.11162 0.78135,-0.40928 0.26045,-0.33486 0.44648,-0.59531 0.5209,-0.0372 0.70694,0.14883 0.18603,0.18603 0.37207,0.59531 0.18603,0.33487 0.44648,0.74414 0.29766,0.40928 0.85576,0.63252 0.0744,0.29766 0.18604,0.63252 0.14882,0.29766 0.29765,0.66973 0.29766,0.63252 0.5209,1.33945 0.26045,0.66973 0.29766,1.30225 -0.37207,0.70693 -0.59531,1.63711 -0.18604,0.93017 -0.26045,1.89756 -0.0372,0.93017 0.0372,1.82314 0.11162,0.85576 0.33487,1.45107 l 0.22324,0.4837 0.63252,-0.0744 q 1.11621,-0.29765 2.00918,-0.63252 0.93017,-0.37207 1.71152,-0.85576 0.78135,-0.48369 1.48828,-1.11621 0.70694,-0.66973 1.48828,-1.52549 0.78135,-0.85576 1.33946,-1.93476 0.59531,-1.11622 0.96738,-2.30684 0.40928,-1.19063 0.59531,-2.34404 0.22324,-1.19063 0.29766,-2.23243 0.63252,-0.22324 0.63252,-0.89296 l -0.0744,-0.40928 q -0.14882,-0.22324 0,-0.5209 0.22325,-0.70693 1.0418,-1.079 0.59531,0.37207 1.0418,0.81855 0.48369,0.44649 0.89297,0.89297 z"
         id="path3" />
    </g>
  </g>
</svg>
